<svg width="511" height="655" viewBox="0 0 511 655" fill="none" xmlns="http://www.w3.org/2000/svg">
<circle cx="255.5" cy="130.5" r="130.5" fill="url(#paint0_linear_141_474)"/>
<path d="M243.452 52.8989C207.604 52.8989 178.501 82.1412 178.501 117.991C178.501 153.98 207.603 183.217 243.452 183.217C259.9 183.217 274.801 177.032 286.33 167.051L291.391 172.114C288.86 177.175 289.705 183.361 293.923 187.578L310.089 203.745C312.62 206.275 315.992 207.68 319.507 207.68C323.022 207.68 326.395 206.275 328.925 203.745C334.127 198.543 334.127 190.107 328.925 184.906L312.758 168.739C310.228 166.208 306.855 164.803 303.34 164.803C301.232 164.803 299.265 165.365 297.437 166.208L292.374 161.147C302.496 149.62 308.541 134.577 308.541 118.269C308.4 82.1389 279.16 52.8979 243.452 52.8979L243.452 52.8989ZM243.452 61.3338C274.661 61.3338 299.967 86.7802 299.967 117.991C299.967 149.201 274.662 174.644 243.452 174.644C212.241 174.644 186.936 149.2 186.936 117.991C186.936 86.7812 212.242 61.3338 243.452 61.3338ZM243.452 68.083C216.038 68.083 193.684 90.5761 193.684 117.989C193.684 145.401 215.896 167.894 243.452 167.894C270.865 167.894 293.219 145.542 293.219 117.989C293.219 90.4353 270.866 68.083 243.452 68.083ZM243.452 76.5179C266.226 76.5179 284.784 95.0747 284.784 117.989C284.784 140.903 266.226 159.46 243.452 159.46C220.677 159.46 202.122 140.903 202.122 117.989C202.122 95.0747 220.679 76.5179 243.452 76.5179ZM243.312 81.8587C228.13 81.8587 214.351 91.5578 209.29 105.897C208.587 108.146 209.712 110.537 211.961 111.24C212.383 111.381 212.945 111.52 213.367 111.52C215.054 111.52 216.742 110.396 217.304 108.709C221.241 97.7434 231.644 90.2937 243.312 90.2937C245.702 90.2937 247.53 88.4661 247.53 86.0762C247.53 83.6863 245.702 81.8588 243.312 81.8588L243.312 81.8587ZM211.538 113.069C209.289 113.069 207.321 114.894 207.321 117.144V117.847C207.321 120.236 209.148 122.064 211.538 122.064C213.928 122.064 215.756 120.38 215.756 117.99V117.426C215.756 115.036 213.931 113.21 211.681 113.069L211.538 113.069Z" fill="white"/>
<path d="M74.1813 367L52.6041 310.135H52.2526C52.3698 311.336 52.4723 312.801 52.5602 314.529C52.6481 316.258 52.7213 318.147 52.7799 320.198C52.8385 322.22 52.8678 324.285 52.8678 326.395V367H45.9245V302.752H56.9987L77.3454 356.189H77.653L98.3073 302.752H109.294V367H101.911V325.867C101.911 323.963 101.94 322.059 101.999 320.154C102.057 318.221 102.131 316.404 102.218 314.705C102.306 312.977 102.394 311.482 102.482 310.223H102.131L80.2897 367H74.1813ZM140.988 317.957C145.09 317.957 148.605 318.865 151.535 320.682C154.465 322.498 156.706 325.047 158.259 328.328C159.811 331.58 160.588 335.389 160.588 339.754V344.28H127.321C127.409 349.935 128.815 354.241 131.54 357.2C134.264 360.159 138.102 361.639 143.053 361.639C146.1 361.639 148.796 361.36 151.139 360.804C153.483 360.247 155.915 359.427 158.434 358.343V364.759C156.003 365.843 153.586 366.634 151.183 367.132C148.81 367.63 145.998 367.879 142.746 367.879C138.117 367.879 134.074 366.941 130.617 365.066C127.189 363.162 124.523 360.379 122.619 356.717C120.715 353.055 119.762 348.572 119.762 343.27C119.762 338.084 120.627 333.602 122.355 329.822C124.113 326.014 126.574 323.084 129.738 321.033C132.931 318.982 136.681 317.957 140.988 317.957ZM140.9 323.934C137.004 323.934 133.898 325.208 131.584 327.757C129.269 330.306 127.892 333.865 127.453 338.436H152.941C152.912 335.564 152.458 333.045 151.579 330.877C150.729 328.68 149.426 326.98 147.668 325.779C145.91 324.549 143.654 323.934 140.9 323.934ZM186.789 367.879C180.695 367.879 175.861 365.799 172.287 361.639C168.742 357.479 166.97 351.297 166.97 343.094C166.97 334.803 168.786 328.548 172.419 324.329C176.052 320.081 180.886 317.957 186.921 317.957C189.47 317.957 191.696 318.294 193.6 318.968C195.505 319.642 197.145 320.55 198.522 321.692C199.899 322.806 201.056 324.08 201.994 325.516H202.521C202.404 324.607 202.287 323.362 202.17 321.78C202.053 320.198 201.994 318.909 201.994 317.913V298.621H209.289V367H203.4L202.302 360.145H201.994C201.086 361.58 199.929 362.884 198.522 364.056C197.145 365.228 195.49 366.165 193.556 366.868C191.652 367.542 189.396 367.879 186.789 367.879ZM187.931 361.814C193.088 361.814 196.735 360.35 198.874 357.42C201.012 354.49 202.082 350.14 202.082 344.368V343.05C202.082 336.927 201.056 332.225 199.006 328.943C196.984 325.662 193.293 324.021 187.931 324.021C183.449 324.021 180.095 325.75 177.868 329.207C175.641 332.635 174.528 337.322 174.528 343.27C174.528 349.188 175.627 353.758 177.824 356.98C180.051 360.203 183.42 361.814 187.931 361.814ZM228.723 318.836V367H221.428V318.836H228.723ZM225.163 300.818C226.364 300.818 227.39 301.214 228.239 302.005C229.118 302.767 229.557 303.968 229.557 305.608C229.557 307.22 229.118 308.421 228.239 309.212C227.39 310.003 226.364 310.398 225.163 310.398C223.903 310.398 222.849 310.003 221.999 309.212C221.179 308.421 220.768 307.22 220.768 305.608C220.768 303.968 221.179 302.767 221.999 302.005C222.849 301.214 223.903 300.818 225.163 300.818ZM260.153 367.879C255.817 367.879 251.994 366.985 248.684 365.198C245.373 363.411 242.795 360.687 240.949 357.024C239.103 353.362 238.181 348.748 238.181 343.182C238.181 337.352 239.147 332.591 241.081 328.899C243.044 325.179 245.739 322.425 249.167 320.638C252.595 318.851 256.491 317.957 260.856 317.957C263.259 317.957 265.573 318.206 267.8 318.704C270.056 319.173 271.901 319.773 273.337 320.506L271.14 326.614C269.675 326.028 267.976 325.501 266.042 325.032C264.138 324.563 262.351 324.329 260.681 324.329C257.341 324.329 254.558 325.047 252.331 326.482C250.134 327.918 248.478 330.027 247.365 332.811C246.281 335.594 245.739 339.021 245.739 343.094C245.739 346.99 246.267 350.315 247.321 353.069C248.405 355.823 250.002 357.933 252.111 359.397C254.25 360.833 256.916 361.551 260.109 361.551C262.658 361.551 264.958 361.287 267.009 360.76C269.06 360.203 270.92 359.559 272.59 358.826V365.33C270.978 366.15 269.177 366.78 267.185 367.22C265.222 367.659 262.878 367.879 260.153 367.879ZM298.703 318.045C304.445 318.045 308.708 319.334 311.491 321.912C314.274 324.49 315.666 328.606 315.666 334.261V367H310.349L308.942 359.881H308.591C307.243 361.639 305.837 363.118 304.372 364.319C302.907 365.491 301.208 366.385 299.274 367C297.37 367.586 295.026 367.879 292.243 367.879C289.314 367.879 286.706 367.366 284.421 366.341C282.165 365.315 280.378 363.763 279.06 361.683C277.771 359.603 277.126 356.966 277.126 353.772C277.126 348.968 279.03 345.276 282.839 342.698C286.648 340.12 292.448 338.714 300.241 338.479L308.547 338.128V335.184C308.547 331.023 307.653 328.108 305.866 326.438C304.079 324.769 301.56 323.934 298.308 323.934C295.788 323.934 293.386 324.3 291.101 325.032C288.815 325.765 286.648 326.629 284.597 327.625L282.356 322.088C284.523 320.975 287.014 320.022 289.826 319.231C292.639 318.44 295.598 318.045 298.703 318.045ZM308.459 343.27L301.12 343.577C295.114 343.812 290.881 344.793 288.42 346.521C285.959 348.25 284.729 350.696 284.729 353.86C284.729 356.614 285.564 358.65 287.233 359.969C288.903 361.287 291.115 361.946 293.869 361.946C298.147 361.946 301.648 360.76 304.372 358.387C307.097 356.014 308.459 352.454 308.459 347.708V343.27ZM342.922 361.902C344.123 361.902 345.354 361.8 346.613 361.595C347.873 361.39 348.899 361.141 349.69 360.848V366.517C348.84 366.897 347.653 367.22 346.13 367.483C344.636 367.747 343.171 367.879 341.735 367.879C339.187 367.879 336.872 367.439 334.792 366.561C332.712 365.652 331.042 364.129 329.782 361.99C328.552 359.852 327.937 356.893 327.937 353.113V324.549H321.081V320.989L327.981 318.133L330.881 307.674H335.276V318.836H349.382V324.549H335.276V352.894C335.276 355.911 335.964 358.167 337.341 359.661C338.747 361.155 340.608 361.902 342.922 361.902ZM363.41 318.836V367H356.115V318.836H363.41ZM359.851 300.818C361.052 300.818 362.077 301.214 362.927 302.005C363.806 302.767 364.245 303.968 364.245 305.608C364.245 307.22 363.806 308.421 362.927 309.212C362.077 310.003 361.052 310.398 359.851 310.398C358.591 310.398 357.536 310.003 356.687 309.212C355.866 308.421 355.456 307.22 355.456 305.608C355.456 303.968 355.866 302.767 356.687 302.005C357.536 301.214 358.591 300.818 359.851 300.818ZM417.077 342.83C417.077 346.785 416.565 350.315 415.539 353.421C414.514 356.526 413.034 359.148 411.101 361.287C409.167 363.426 406.823 365.066 404.07 366.209C401.345 367.322 398.254 367.879 394.797 367.879C391.574 367.879 388.615 367.322 385.92 366.209C383.254 365.066 380.94 363.426 378.977 361.287C377.043 359.148 375.534 356.526 374.45 353.421C373.396 350.315 372.868 346.785 372.868 342.83C372.868 337.557 373.762 333.074 375.549 329.383C377.336 325.662 379.885 322.835 383.196 320.901C386.535 318.938 390.505 317.957 395.105 317.957C399.499 317.957 403.337 318.938 406.618 320.901C409.929 322.864 412.492 325.706 414.309 329.427C416.155 333.118 417.077 337.586 417.077 342.83ZM380.427 342.83C380.427 346.697 380.94 350.052 381.965 352.894C382.99 355.735 384.573 357.933 386.711 359.485C388.85 361.038 391.604 361.814 394.973 361.814C398.313 361.814 401.052 361.038 403.191 359.485C405.359 357.933 406.955 355.735 407.981 352.894C409.006 350.052 409.519 346.697 409.519 342.83C409.519 338.992 409.006 335.682 407.981 332.898C406.955 330.086 405.373 327.918 403.235 326.395C401.096 324.871 398.327 324.109 394.929 324.109C389.919 324.109 386.242 325.765 383.899 329.075C381.584 332.386 380.427 336.971 380.427 342.83ZM449.167 317.957C454.88 317.957 459.202 319.363 462.131 322.176C465.061 324.959 466.526 329.441 466.526 335.623V367H459.319V336.106C459.319 332.093 458.396 329.09 456.55 327.098C454.734 325.105 451.936 324.109 448.157 324.109C442.825 324.109 439.075 325.618 436.907 328.636C434.739 331.653 433.655 336.033 433.655 341.775V367H426.36V318.836H432.248L433.347 325.779H433.743C434.768 324.08 436.072 322.659 437.654 321.517C439.236 320.345 441.008 319.466 442.971 318.88C444.934 318.265 446.999 317.957 449.167 317.957Z" fill="#78BD43"/>
<path d="M146.623 499H139.152V434.752H174.924V441.344H146.623V464.898H173.21V471.446H146.623V499ZM188.513 450.836V499H181.218V450.836H188.513ZM184.953 432.818C186.154 432.818 187.18 433.214 188.029 434.005C188.908 434.767 189.348 435.968 189.348 437.608C189.348 439.22 188.908 440.421 188.029 441.212C187.18 442.003 186.154 442.398 184.953 442.398C183.693 442.398 182.639 442.003 181.789 441.212C180.969 440.421 180.558 439.22 180.558 437.608C180.558 435.968 180.969 434.767 181.789 434.005C182.639 433.214 183.693 432.818 184.953 432.818ZM223.459 449.957C229.172 449.957 233.493 451.363 236.423 454.176C239.352 456.959 240.817 461.441 240.817 467.623V499H233.61V468.106C233.61 464.093 232.687 461.09 230.842 459.098C229.025 457.105 226.227 456.109 222.448 456.109C217.116 456.109 213.366 457.618 211.198 460.636C209.03 463.653 207.946 468.033 207.946 473.775V499H200.651V450.836H206.54L207.639 457.779H208.034C209.06 456.08 210.363 454.659 211.945 453.517C213.527 452.345 215.3 451.466 217.263 450.88C219.226 450.265 221.291 449.957 223.459 449.957ZM269.655 499.879C263.562 499.879 258.728 497.799 255.153 493.639C251.608 489.479 249.836 483.297 249.836 475.094C249.836 466.803 251.652 460.548 255.285 456.329C258.918 452.081 263.752 449.957 269.787 449.957C272.336 449.957 274.563 450.294 276.467 450.968C278.371 451.642 280.012 452.55 281.389 453.692C282.766 454.806 283.923 456.08 284.86 457.516H285.388C285.271 456.607 285.153 455.362 285.036 453.78C284.919 452.198 284.86 450.909 284.86 449.913V430.621H292.155V499H286.267L285.168 492.145H284.86C283.952 493.58 282.795 494.884 281.389 496.056C280.012 497.228 278.356 498.165 276.423 498.868C274.519 499.542 272.263 499.879 269.655 499.879ZM270.798 493.814C275.954 493.814 279.602 492.35 281.74 489.42C283.879 486.49 284.948 482.14 284.948 476.368V475.05C284.948 468.927 283.923 464.225 281.872 460.943C279.851 457.662 276.159 456.021 270.798 456.021C266.315 456.021 262.961 457.75 260.734 461.207C258.508 464.635 257.395 469.322 257.395 475.27C257.395 481.188 258.493 485.758 260.69 488.98C262.917 492.203 266.286 493.814 270.798 493.814ZM322.839 449.957C326.941 449.957 330.456 450.865 333.386 452.682C336.316 454.498 338.557 457.047 340.109 460.328C341.662 463.58 342.439 467.389 342.439 471.754V476.28H309.172C309.26 481.935 310.666 486.241 313.391 489.2C316.115 492.159 319.953 493.639 324.904 493.639C327.951 493.639 330.647 493.36 332.99 492.804C335.334 492.247 337.766 491.427 340.285 490.343V496.759C337.854 497.843 335.437 498.634 333.034 499.132C330.661 499.63 327.849 499.879 324.597 499.879C319.968 499.879 315.925 498.941 312.468 497.066C309.04 495.162 306.374 492.379 304.47 488.717C302.566 485.055 301.613 480.572 301.613 475.27C301.613 470.084 302.478 465.602 304.206 461.822C305.964 458.014 308.425 455.084 311.589 453.033C314.782 450.982 318.532 449.957 322.839 449.957ZM322.751 455.934C318.855 455.934 315.749 457.208 313.435 459.757C311.12 462.306 309.743 465.865 309.304 470.436H334.792C334.763 467.564 334.309 465.045 333.43 462.877C332.58 460.68 331.276 458.98 329.519 457.779C327.761 456.549 325.505 455.934 322.751 455.934ZM373.386 449.957C374.353 449.957 375.363 450.016 376.418 450.133C377.473 450.221 378.41 450.353 379.231 450.528L378.308 457.296C377.517 457.091 376.638 456.93 375.671 456.812C374.704 456.695 373.796 456.637 372.946 456.637C371.013 456.637 369.182 457.032 367.453 457.823C365.754 458.585 364.26 459.698 362.971 461.163C361.682 462.599 360.671 464.342 359.939 466.393C359.206 468.414 358.84 470.67 358.84 473.16V499H351.501V450.836H357.566L358.357 459.713H358.664C359.66 457.926 360.862 456.3 362.268 454.835C363.674 453.341 365.3 452.154 367.146 451.275C369.021 450.396 371.101 449.957 373.386 449.957Z" fill="#00B4AE"/>
<path d="M72.7086 582.373C72.7086 584.518 71.9176 586.217 70.3355 587.471C68.7652 588.725 66.6734 589.352 64.0602 589.352C60.9195 589.352 58.5113 589.006 56.8355 588.314V586.521C58.6871 587.307 61.0484 587.699 63.9195 587.699C66.0289 587.699 67.6988 587.219 68.9293 586.258C70.1715 585.285 70.7926 584.014 70.7926 582.443C70.7926 581.471 70.5875 580.668 70.1773 580.035C69.7672 579.391 69.0992 578.805 68.1734 578.277C67.2477 577.75 65.8883 577.182 64.0953 576.572C61.4703 575.67 59.6539 574.697 58.6461 573.654C57.65 572.6 57.1519 571.199 57.1519 569.453C57.1519 567.531 57.9019 565.967 59.4019 564.76C60.9137 563.541 62.8531 562.932 65.2203 562.932C67.6344 562.932 69.9019 563.389 72.023 564.303L71.3727 565.85C69.2398 564.959 67.2008 564.514 65.2555 564.514C63.357 564.514 61.8453 564.953 60.7203 565.832C59.5953 566.711 59.0328 567.906 59.0328 569.418C59.0328 570.367 59.2027 571.146 59.5426 571.756C59.8941 572.365 60.4625 572.916 61.2477 573.408C62.0328 573.889 63.3805 574.469 65.2906 575.148C67.2945 575.84 68.8004 576.514 69.8082 577.17C70.816 577.814 71.5484 578.553 72.0055 579.385C72.4742 580.205 72.7086 581.201 72.7086 582.373ZM84.0856 589.352C81.3082 589.352 79.1403 588.496 77.5817 586.785C76.0348 585.074 75.2614 582.678 75.2614 579.596C75.2614 576.549 76.0114 574.111 77.5114 572.283C79.0114 570.443 81.0328 569.523 83.5758 569.523C85.8258 569.523 87.6012 570.309 88.902 571.879C90.2028 573.449 90.8531 575.582 90.8531 578.277V579.684H77.0895C77.1129 582.309 77.7223 584.312 78.9176 585.695C80.1246 587.078 81.8473 587.77 84.0856 587.77C85.1754 587.77 86.1305 587.693 86.9508 587.541C87.7828 587.389 88.8317 587.061 90.0973 586.557V588.139C89.0192 588.607 88.0231 588.924 87.109 589.088C86.1949 589.264 85.1871 589.352 84.0856 589.352ZM83.5758 571.07C81.736 571.07 80.2594 571.68 79.1461 572.898C78.0328 574.105 77.3824 575.852 77.1949 578.137H89.0074C89.0074 575.922 88.527 574.193 87.566 572.951C86.6051 571.697 85.275 571.07 83.5758 571.07ZM106.396 589L105.957 585.977H105.816C104.855 587.207 103.865 588.08 102.845 588.596C101.838 589.1 100.642 589.352 99.2594 589.352C97.3844 589.352 95.9254 588.871 94.8825 587.91C93.8395 586.949 93.318 585.619 93.318 583.92C93.318 582.057 94.0915 580.609 95.6383 579.578C97.1969 578.547 99.4469 578.002 102.388 577.943L106.027 577.838V576.572C106.027 574.756 105.658 573.385 104.92 572.459C104.181 571.533 102.992 571.07 101.351 571.07C99.5817 571.07 97.7477 571.562 95.8493 572.547L95.1989 571.035C97.2965 570.051 99.3708 569.559 101.422 569.559C103.519 569.559 105.084 570.104 106.115 571.193C107.158 572.283 107.679 573.982 107.679 576.291V589H106.396ZM99.3649 587.77C101.404 587.77 103.009 587.189 104.181 586.029C105.365 584.857 105.957 583.234 105.957 581.16V579.279L102.617 579.42C99.9333 579.549 98.0172 579.971 96.8688 580.686C95.7321 581.389 95.1637 582.49 95.1637 583.99C95.1637 585.186 95.527 586.117 96.2536 586.785C96.9919 587.441 98.029 587.77 99.3649 587.77ZM120.076 569.523C120.884 569.523 121.752 569.605 122.677 569.77L122.343 571.439C121.547 571.24 120.72 571.141 119.865 571.141C118.236 571.141 116.9 571.832 115.857 573.215C114.814 574.598 114.293 576.344 114.293 578.453V589H112.552V569.893H114.029L114.205 573.338H114.328C115.113 571.932 115.951 570.947 116.841 570.385C117.732 569.811 118.81 569.523 120.076 569.523ZM132.877 589.352C130.146 589.352 128.008 588.49 126.461 586.768C124.914 585.045 124.14 582.643 124.14 579.561C124.14 576.396 124.943 573.936 126.549 572.178C128.154 570.408 130.351 569.523 133.14 569.523C134.793 569.523 136.375 569.811 137.886 570.385L137.412 571.932C135.759 571.381 134.324 571.105 133.105 571.105C130.761 571.105 128.986 571.832 127.779 573.285C126.572 574.727 125.968 576.807 125.968 579.525C125.968 582.104 126.572 584.125 127.779 585.59C128.986 587.043 130.674 587.77 132.842 587.77C134.576 587.77 136.187 587.459 137.676 586.838V588.455C136.457 589.053 134.857 589.352 132.877 589.352ZM154.361 589V576.607C154.361 574.686 153.957 573.291 153.148 572.424C152.34 571.545 151.086 571.105 149.386 571.105C147.101 571.105 145.426 571.686 144.359 572.846C143.304 573.994 142.777 575.863 142.777 578.453V589H141.037V561.648H142.777V570.35L142.689 572.793H142.812C143.527 571.645 144.429 570.812 145.519 570.297C146.609 569.781 147.963 569.523 149.58 569.523C153.916 569.523 156.084 571.85 156.084 576.502V589H154.361ZM176.06 571.404H171.56V589H169.82V571.404H166.269V570.385L169.82 569.734V568.258C169.82 565.914 170.248 564.197 171.103 563.107C171.971 562.006 173.383 561.455 175.34 561.455C176.394 561.455 177.449 561.613 178.504 561.93L178.099 563.441C177.162 563.148 176.23 563.002 175.305 563.002C173.945 563.002 172.978 563.406 172.404 564.215C171.842 565.012 171.56 566.312 171.56 568.117V569.893H176.06V571.404ZM194.223 579.42C194.223 582.537 193.467 584.975 191.955 586.732C190.443 588.479 188.357 589.352 185.697 589.352C184.021 589.352 182.545 588.947 181.267 588.139C179.99 587.33 179.012 586.17 178.332 584.658C177.652 583.146 177.312 581.4 177.312 579.42C177.312 576.303 178.068 573.877 179.58 572.143C181.092 570.396 183.166 569.523 185.803 569.523C188.428 569.523 190.484 570.408 191.973 572.178C193.473 573.936 194.223 576.35 194.223 579.42ZM179.14 579.42C179.14 582.045 179.715 584.096 180.863 585.572C182.023 587.037 183.658 587.77 185.767 587.77C187.877 587.77 189.506 587.037 190.654 585.572C191.814 584.096 192.394 582.045 192.394 579.42C192.394 576.783 191.808 574.738 190.637 573.285C189.476 571.832 187.842 571.105 185.732 571.105C183.623 571.105 181.994 571.832 180.846 573.285C179.709 574.727 179.14 576.771 179.14 579.42ZM205.705 569.523C206.514 569.523 207.381 569.605 208.307 569.77L207.973 571.439C207.176 571.24 206.349 571.141 205.494 571.141C203.865 571.141 202.529 571.832 201.486 573.215C200.443 574.598 199.922 576.344 199.922 578.453V589H198.182V569.893H199.658L199.834 573.338H199.957C200.742 571.932 201.58 570.947 202.471 570.385C203.361 569.811 204.439 569.523 205.705 569.523ZM223.941 587.805C225.043 587.805 226.004 587.711 226.824 587.523V588.93C225.98 589.211 225.008 589.352 223.906 589.352C222.219 589.352 220.971 588.9 220.162 587.998C219.365 587.096 218.967 585.678 218.967 583.744V571.404H216.137V570.385L218.967 569.594L219.846 565.27H220.742V569.893H226.35V571.404H220.742V583.498C220.742 584.963 221 586.047 221.516 586.75C222.031 587.453 222.84 587.805 223.941 587.805ZM242.947 589V576.607C242.947 574.686 242.543 573.291 241.734 572.424C240.926 571.545 239.672 571.105 237.973 571.105C235.687 571.105 234.012 571.686 232.945 572.846C231.891 573.994 231.363 575.863 231.363 578.453V589H229.623V561.648H231.363V570.35L231.275 572.793H231.398C232.113 571.645 233.016 570.812 234.105 570.297C235.195 569.781 236.549 569.523 238.166 569.523C242.502 569.523 244.67 571.85 244.67 576.502V589H242.947ZM257.242 589.352C254.465 589.352 252.297 588.496 250.738 586.785C249.191 585.074 248.418 582.678 248.418 579.596C248.418 576.549 249.168 574.111 250.668 572.283C252.168 570.443 254.189 569.523 256.732 569.523C258.982 569.523 260.758 570.309 262.059 571.879C263.359 573.449 264.01 575.582 264.01 578.277V579.684H250.246C250.27 582.309 250.879 584.312 252.074 585.695C253.281 587.078 255.004 587.77 257.242 587.77C258.332 587.77 259.287 587.693 260.107 587.541C260.939 587.389 261.988 587.061 263.254 586.557V588.139C262.176 588.607 261.18 588.924 260.266 589.088C259.352 589.264 258.344 589.352 257.242 589.352ZM256.732 571.07C254.893 571.07 253.416 571.68 252.303 572.898C251.189 574.105 250.539 575.852 250.352 578.137H262.164C262.164 575.922 261.684 574.193 260.723 572.951C259.762 571.697 258.432 571.07 256.732 571.07ZM299.842 589V576.467C299.842 574.604 299.479 573.244 298.752 572.389C298.025 571.533 296.912 571.105 295.412 571.105C293.455 571.105 292.008 571.645 291.07 572.723C290.133 573.801 289.664 575.494 289.664 577.803V589H287.889V575.939C287.889 572.717 286.412 571.105 283.459 571.105C281.455 571.105 279.996 571.691 279.082 572.863C278.168 574.023 277.711 575.887 277.711 578.453V589H275.971V569.893H277.412L277.781 572.512H277.887C278.414 571.562 279.164 570.83 280.137 570.314C281.109 569.787 282.182 569.523 283.354 569.523C286.365 569.523 288.299 570.654 289.154 572.916H289.225C289.846 571.826 290.678 570.988 291.721 570.402C292.775 569.816 293.971 569.523 295.307 569.523C297.393 569.523 298.957 570.08 300 571.193C301.043 572.307 301.565 574.076 301.565 576.502V589H299.842ZM314.137 589.352C311.359 589.352 309.192 588.496 307.633 586.785C306.086 585.074 305.313 582.678 305.313 579.596C305.313 576.549 306.063 574.111 307.563 572.283C309.063 570.443 311.084 569.523 313.627 569.523C315.877 569.523 317.652 570.309 318.953 571.879C320.254 573.449 320.904 575.582 320.904 578.277V579.684H307.141C307.164 582.309 307.774 584.312 308.969 585.695C310.176 587.078 311.899 587.77 314.137 587.77C315.227 587.77 316.182 587.693 317.002 587.541C317.834 587.389 318.883 587.061 320.149 586.557V588.139C319.07 588.607 318.074 588.924 317.16 589.088C316.246 589.264 315.238 589.352 314.137 589.352ZM313.627 571.07C311.787 571.07 310.311 571.68 309.197 572.898C308.084 574.105 307.434 575.852 307.246 578.137H319.059C319.059 575.922 318.578 574.193 317.617 572.951C316.656 571.697 315.326 571.07 313.627 571.07ZM331.842 569.523C333.225 569.523 334.42 569.775 335.428 570.279C336.436 570.783 337.338 571.645 338.135 572.863H338.24C338.17 571.387 338.135 569.939 338.135 568.521V561.648H339.858V589H338.715L338.276 586.082H338.135C336.682 588.262 334.596 589.352 331.877 589.352C329.24 589.352 327.225 588.531 325.83 586.891C324.436 585.25 323.738 582.859 323.738 579.719C323.738 576.414 324.43 573.889 325.813 572.143C327.195 570.396 329.205 569.523 331.842 569.523ZM331.842 571.105C329.756 571.105 328.186 571.838 327.131 573.303C326.088 574.768 325.567 576.895 325.567 579.684C325.567 585.098 327.67 587.805 331.877 587.805C334.033 587.805 335.615 587.178 336.623 585.924C337.631 584.67 338.135 582.602 338.135 579.719V579.42C338.135 576.467 337.637 574.346 336.641 573.057C335.656 571.756 334.057 571.105 331.842 571.105ZM346.699 589H344.959V569.893H346.699V589ZM344.713 564.584C344.713 563.459 345.082 562.896 345.82 562.896C346.184 562.896 346.465 563.043 346.664 563.336C346.875 563.629 346.981 564.045 346.981 564.584C346.981 565.111 346.875 565.527 346.664 565.832C346.465 566.137 346.184 566.289 345.82 566.289C345.082 566.289 344.713 565.721 344.713 564.584ZM359.412 589.352C356.682 589.352 354.543 588.49 352.996 586.768C351.449 585.045 350.676 582.643 350.676 579.561C350.676 576.396 351.479 573.936 353.084 572.178C354.69 570.408 356.887 569.523 359.676 569.523C361.328 569.523 362.91 569.811 364.422 570.385L363.947 571.932C362.295 571.381 360.86 571.105 359.641 571.105C357.297 571.105 355.522 571.832 354.315 573.285C353.108 574.727 352.504 576.807 352.504 579.525C352.504 582.104 353.108 584.125 354.315 585.59C355.522 587.043 357.209 587.77 359.377 587.77C361.112 587.77 362.723 587.459 364.211 586.838V588.455C362.992 589.053 361.393 589.352 359.412 589.352ZM379.174 589L378.735 585.977H378.594C377.633 587.207 376.643 588.08 375.623 588.596C374.615 589.1 373.42 589.352 372.037 589.352C370.162 589.352 368.703 588.871 367.66 587.91C366.617 586.949 366.096 585.619 366.096 583.92C366.096 582.057 366.869 580.609 368.416 579.578C369.975 578.547 372.225 578.002 375.166 577.943L378.805 577.838V576.572C378.805 574.756 378.436 573.385 377.698 572.459C376.959 571.533 375.77 571.07 374.129 571.07C372.36 571.07 370.526 571.562 368.627 572.547L367.977 571.035C370.074 570.051 372.149 569.559 374.199 569.559C376.297 569.559 377.862 570.104 378.893 571.193C379.936 572.283 380.457 573.982 380.457 576.291V589H379.174ZM372.143 587.77C374.182 587.77 375.787 587.189 376.959 586.029C378.143 584.857 378.735 583.234 378.735 581.16V579.279L375.395 579.42C372.711 579.549 370.795 579.971 369.647 580.686C368.51 581.389 367.942 582.49 367.942 583.99C367.942 585.186 368.305 586.117 369.031 586.785C369.77 587.441 370.807 587.77 372.143 587.77ZM390.375 587.805C391.477 587.805 392.438 587.711 393.258 587.523V588.93C392.414 589.211 391.442 589.352 390.34 589.352C388.653 589.352 387.405 588.9 386.596 587.998C385.799 587.096 385.401 585.678 385.401 583.744V571.404H382.571V570.385L385.401 569.594L386.28 565.27H387.176V569.893H392.783V571.404H387.176V583.498C387.176 584.963 387.434 586.047 387.949 586.75C388.465 587.453 389.274 587.805 390.375 587.805ZM397.797 589H396.057V569.893H397.797V589ZM395.811 564.584C395.811 563.459 396.18 562.896 396.918 562.896C397.282 562.896 397.563 563.043 397.762 563.336C397.973 563.629 398.078 564.045 398.078 564.584C398.078 565.111 397.973 565.527 397.762 565.832C397.563 566.137 397.282 566.289 396.918 566.289C396.18 566.289 395.811 565.721 395.811 564.584ZM418.684 579.42C418.684 582.537 417.928 584.975 416.416 586.732C414.905 588.479 412.819 589.352 410.159 589.352C408.483 589.352 407.006 588.947 405.729 588.139C404.452 587.33 403.473 586.17 402.793 584.658C402.114 583.146 401.774 581.4 401.774 579.42C401.774 576.303 402.53 573.877 404.041 572.143C405.553 570.396 407.627 569.523 410.264 569.523C412.889 569.523 414.946 570.408 416.434 572.178C417.934 573.936 418.684 576.35 418.684 579.42ZM403.602 579.42C403.602 582.045 404.176 584.096 405.325 585.572C406.485 587.037 408.119 587.77 410.229 587.77C412.338 587.77 413.967 587.037 415.116 585.572C416.276 584.096 416.856 582.045 416.856 579.42C416.856 576.783 416.27 574.738 415.098 573.285C413.938 571.832 412.303 571.105 410.194 571.105C408.084 571.105 406.455 571.832 405.307 573.285C404.17 574.727 403.602 576.771 403.602 579.42ZM435.967 589V576.607C435.967 574.686 435.563 573.291 434.754 572.424C433.946 571.545 432.692 571.105 430.993 571.105C428.707 571.105 427.032 571.686 425.965 572.846C424.911 573.994 424.383 575.863 424.383 578.453V589H422.643V569.893H424.12L424.453 572.512H424.559C425.801 570.52 428.01 569.523 431.186 569.523C435.522 569.523 437.69 571.85 437.69 576.502V589H435.967ZM454.393 584.025C454.393 585.736 453.743 587.055 452.442 587.98C451.141 588.895 449.295 589.352 446.905 589.352C444.35 589.352 442.323 588.959 440.823 588.174V586.293C442.745 587.254 444.772 587.734 446.905 587.734C448.791 587.734 450.221 587.424 451.194 586.803C452.178 586.17 452.67 585.332 452.67 584.289C452.67 583.328 452.278 582.52 451.493 581.863C450.719 581.207 449.442 580.562 447.661 579.93C445.75 579.238 444.409 578.646 443.635 578.154C442.862 577.65 442.276 577.088 441.877 576.467C441.491 575.834 441.297 575.066 441.297 574.164C441.297 572.734 441.895 571.604 443.09 570.771C444.297 569.939 445.979 569.523 448.135 569.523C450.198 569.523 452.155 569.91 454.006 570.684L453.356 572.266C451.481 571.492 449.741 571.105 448.135 571.105C446.577 571.105 445.34 571.363 444.426 571.879C443.512 572.395 443.055 573.109 443.055 574.023C443.055 575.02 443.407 575.816 444.11 576.414C444.825 577.012 446.213 577.68 448.276 578.418C449.998 579.039 451.252 579.602 452.038 580.105C452.823 580.598 453.409 581.16 453.795 581.793C454.194 582.426 454.393 583.17 454.393 584.025ZM181.305 623.893H183.098L187.141 634.615C188.371 637.908 189.15 640.129 189.478 641.277H189.584C190.076 639.766 190.879 637.51 191.992 634.51L196.035 623.893H197.828L189.267 646.094C188.576 647.898 187.996 649.117 187.527 649.75C187.058 650.383 186.508 650.857 185.875 651.174C185.254 651.49 184.498 651.648 183.607 651.648C182.939 651.648 182.195 651.525 181.375 651.279V649.768C182.055 649.955 182.787 650.049 183.572 650.049C184.17 650.049 184.697 649.908 185.154 649.627C185.611 649.346 186.021 648.906 186.385 648.309C186.76 647.723 187.187 646.785 187.668 645.496C188.16 644.219 188.476 643.387 188.617 643L181.305 623.893ZM215.498 633.42C215.498 636.537 214.742 638.975 213.23 640.732C211.719 642.479 209.633 643.352 206.973 643.352C205.297 643.352 203.82 642.947 202.543 642.139C201.266 641.33 200.287 640.17 199.607 638.658C198.928 637.146 198.588 635.4 198.588 633.42C198.588 630.303 199.344 627.877 200.855 626.143C202.367 624.396 204.441 623.523 207.078 623.523C209.703 623.523 211.76 624.408 213.248 626.178C214.748 627.936 215.498 630.35 215.498 633.42ZM200.416 633.42C200.416 636.045 200.99 638.096 202.139 639.572C203.299 641.037 204.934 641.77 207.043 641.77C209.152 641.77 210.781 641.037 211.93 639.572C213.09 638.096 213.67 636.045 213.67 633.42C213.67 630.783 213.084 628.738 211.912 627.285C210.752 625.832 209.117 625.105 207.008 625.105C204.898 625.105 203.269 625.832 202.121 627.285C200.984 628.727 200.416 630.771 200.416 633.42ZM220.969 623.893V636.268C220.969 638.189 221.373 639.59 222.182 640.469C222.99 641.336 224.244 641.77 225.943 641.77C228.217 641.77 229.887 641.195 230.953 640.047C232.031 638.898 232.57 637.029 232.57 634.439V623.893H234.293V643H232.816L232.5 640.363H232.394C231.152 642.355 228.943 643.352 225.768 643.352C221.42 643.352 219.246 641.025 219.246 636.373V623.893H220.969ZM260.703 643V630.607C260.703 628.686 260.299 627.291 259.49 626.424C258.682 625.545 257.428 625.105 255.729 625.105C253.443 625.105 251.768 625.686 250.701 626.846C249.646 627.994 249.119 629.863 249.119 632.453V643H247.379V623.893H248.855L249.189 626.512H249.295C250.537 624.52 252.746 623.523 255.922 623.523C260.258 623.523 262.426 625.85 262.426 630.502V643H260.703ZM274.998 643.352C272.221 643.352 270.053 642.496 268.494 640.785C266.947 639.074 266.174 636.678 266.174 633.596C266.174 630.549 266.924 628.111 268.424 626.283C269.924 624.443 271.945 623.523 274.488 623.523C276.738 623.523 278.514 624.309 279.814 625.879C281.115 627.449 281.766 629.582 281.766 632.277V633.684H268.002C268.025 636.309 268.635 638.312 269.83 639.695C271.037 641.078 272.76 641.77 274.998 641.77C276.088 641.77 277.043 641.693 277.863 641.541C278.695 641.389 279.744 641.061 281.01 640.557V642.139C279.932 642.607 278.936 642.924 278.022 643.088C277.107 643.264 276.1 643.352 274.998 643.352ZM274.488 625.07C272.648 625.07 271.172 625.68 270.059 626.898C268.945 628.105 268.295 629.852 268.107 632.137H279.92C279.92 629.922 279.439 628.193 278.479 626.951C277.518 625.697 276.188 625.07 274.488 625.07ZM293.424 643.352C290.647 643.352 288.479 642.496 286.92 640.785C285.373 639.074 284.6 636.678 284.6 633.596C284.6 630.549 285.35 628.111 286.85 626.283C288.35 624.443 290.371 623.523 292.914 623.523C295.164 623.523 296.94 624.309 298.24 625.879C299.541 627.449 300.191 629.582 300.191 632.277V633.684H286.428C286.451 636.309 287.061 638.312 288.256 639.695C289.463 641.078 291.186 641.77 293.424 641.77C294.514 641.77 295.469 641.693 296.289 641.541C297.121 641.389 298.17 641.061 299.436 640.557V642.139C298.357 642.607 297.361 642.924 296.447 643.088C295.533 643.264 294.525 643.352 293.424 643.352ZM292.914 625.07C291.074 625.07 289.598 625.68 288.484 626.898C287.371 628.105 286.721 629.852 286.533 632.137H298.346C298.346 629.922 297.865 628.193 296.904 626.951C295.943 625.697 294.613 625.07 292.914 625.07ZM311.129 623.523C312.512 623.523 313.707 623.775 314.715 624.279C315.723 624.783 316.625 625.645 317.422 626.863H317.527C317.457 625.387 317.422 623.939 317.422 622.521V615.648H319.145V643H318.002L317.563 640.082H317.422C315.969 642.262 313.883 643.352 311.164 643.352C308.527 643.352 306.512 642.531 305.117 640.891C303.723 639.25 303.025 636.859 303.025 633.719C303.025 630.414 303.717 627.889 305.1 626.143C306.483 624.396 308.492 623.523 311.129 623.523ZM311.129 625.105C309.043 625.105 307.473 625.838 306.418 627.303C305.375 628.768 304.854 630.895 304.854 633.684C304.854 639.098 306.957 641.805 311.164 641.805C313.32 641.805 314.902 641.178 315.91 639.924C316.918 638.67 317.422 636.602 317.422 633.719V633.42C317.422 630.467 316.924 628.346 315.928 627.057C314.943 625.756 313.344 625.105 311.129 625.105ZM325.899 636.373H324.826L324.317 617.301H326.408L325.899 636.373ZM323.93 641.629C323.93 640.48 324.399 639.906 325.336 639.906C326.297 639.906 326.777 640.48 326.777 641.629C326.777 642.777 326.297 643.352 325.336 643.352C324.399 643.352 323.93 642.777 323.93 641.629Z" fill="black"/>
<defs>
<linearGradient id="paint0_linear_141_474" x1="180.911" y1="23.2562" x2="336.234" y2="238.226" gradientUnits="userSpaceOnUse">
<stop stop-color="#78BD43"/>
<stop offset="0.25" stop-color="#40B975"/>
<stop offset="0.484375" stop-color="#35B87F"/>
<stop offset="0.9999" stop-color="#00B4AE"/>
<stop offset="1" stop-color="#D9D9D9" stop-opacity="0"/>
<stop offset="1" stop-color="#00B4AE"/>
</linearGradient>
</defs>
</svg>
